<svg width="16" height="16" viewBox="0 0 16 16" fill="none" xmlns="http://www.w3.org/2000/svg">
<mask id="mask0_1_733" style="mask-type:alpha" maskUnits="userSpaceOnUse" x="0" y="0" width="16" height="16">
<rect width="16" height="16" fill="#D9D9D9"/>
</mask>
<g mask="url(#mask0_1_733)">
<path d="M9.29999 14.6C9.13333 14.6889 8.96399 14.7027 8.79199 14.6413C8.61955 14.5804 8.48888 14.4667 8.39999 14.3L7.39999 12.3C7.31111 12.1333 7.29733 11.964 7.35866 11.792C7.41955 11.6196 7.53333 11.4889 7.69999 11.4C7.86666 11.3111 8.03599 11.2973 8.20799 11.3587C8.38044 11.4196 8.51111 11.5333 8.59999 11.7L9.59999 13.7C9.68888 13.8667 9.70288 14.036 9.64199 14.208C9.58066 14.3804 9.46666 14.5111 9.29999 14.6ZM13.3 14.6C13.1333 14.6889 12.964 14.7027 12.792 14.6413C12.6195 14.5804 12.4889 14.4667 12.4 14.3L11.4 12.3C11.3111 12.1333 11.2973 11.964 11.3587 11.792C11.4195 11.6196 11.5333 11.4889 11.7 11.4C11.8667 11.3111 12.036 11.2973 12.208 11.3587C12.3804 11.4196 12.5111 11.5333 12.6 11.7L13.6 13.7C13.6889 13.8667 13.7029 14.036 13.642 14.208C13.5807 14.3804 13.4667 14.5111 13.3 14.6ZM5.29999 14.6C5.13333 14.6889 4.96399 14.7027 4.79199 14.6413C4.61955 14.5804 4.48888 14.4667 4.39999 14.3L3.39999 12.3C3.31111 12.1333 3.29733 11.964 3.35866 11.792C3.41955 11.6196 3.53333 11.4889 3.69999 11.4C3.86666 11.3111 4.03599 11.2973 4.20799 11.3587C4.38044 11.4196 4.51111 11.5333 4.59999 11.7L5.59999 13.7C5.68888 13.8667 5.70288 14.036 5.64199 14.208C5.58066 14.3804 5.46666 14.5111 5.29999 14.6ZM4.99999 10.6667C3.98888 10.6667 3.12511 10.3082 2.40866 9.59134C1.69177 8.87489 1.33333 8.01111 1.33333 7C1.33333 6.07778 1.63888 5.27222 2.24999 4.58334C2.86111 3.89445 3.61666 3.48889 4.51666 3.36667C4.87222 2.73334 5.35844 2.236 5.97533 1.87467C6.59177 1.51378 7.26666 1.33334 7.99999 1.33334C8.99999 1.33334 9.86933 1.65289 10.608 2.292C11.3471 2.93067 11.7944 3.72778 11.95 4.68334C12.7167 4.75 13.3611 5.06667 13.8833 5.63334C14.4056 6.2 14.6667 6.87778 14.6667 7.66667C14.6667 8.5 14.3751 9.20845 13.792 9.792C13.2084 10.3751 12.5 10.6667 11.6667 10.6667H4.99999ZM4.99999 9.33334H11.6667C12.1333 9.33334 12.5278 9.17222 12.85 8.85C13.1722 8.52778 13.3333 8.13334 13.3333 7.66667C13.3333 7.2 13.1722 6.80556 12.85 6.48334C12.5278 6.16111 12.1333 6 11.6667 6H10.6667V5.33334C10.6667 4.6 10.4056 3.97222 9.88333 3.45C9.3611 2.92778 8.73333 2.66667 7.99999 2.66667C7.46666 2.66667 6.98044 2.81111 6.54133 3.1C6.10266 3.38889 5.77222 3.77778 5.54999 4.26667L5.38333 4.66667H4.96666C4.33333 4.68889 3.79177 4.92489 3.34199 5.37467C2.89177 5.82489 2.66666 6.36667 2.66666 7C2.66666 7.64445 2.89444 8.19445 3.34999 8.65C3.80555 9.10556 4.35555 9.33334 4.99999 9.33334Z" fill="#1C1B1F"/>
</g>
</svg>
