<svg width="16" height="16" viewBox="0 0 16 16" fill="none" xmlns="http://www.w3.org/2000/svg">
<mask id="mask0_1_730" style="mask-type:alpha" maskUnits="userSpaceOnUse" x="0" y="0" width="16" height="16">
<rect width="16" height="16" fill="#D9D9D9"/>
</mask>
<g mask="url(#mask0_1_730)">
<path d="M8.00001 10C8.55556 10 9.02778 9.80556 9.41667 9.41667C9.80556 9.02778 10 8.55556 10 8.00001C10 7.44445 9.80556 6.97223 9.41667 6.58334C9.02778 6.19445 8.55556 6.00001 8.00001 6.00001C7.44445 6.00001 6.97223 6.19445 6.58334 6.58334C6.19445 6.97223 6.00001 7.44445 6.00001 8.00001C6.00001 8.55556 6.19445 9.02778 6.58334 9.41667C6.97223 9.80556 7.44445 10 8.00001 10ZM8.00001 11.3333C7.07778 11.3333 6.29178 11.0082 5.64201 10.358C4.99178 9.70823 4.66667 8.92223 4.66667 8.00001C4.66667 7.07778 4.99178 6.29156 5.64201 5.64134C6.29178 4.99156 7.07778 4.66667 8.00001 4.66667C8.92223 4.66667 9.70845 4.99156 10.3587 5.64134C11.0084 6.29156 11.3333 7.07778 11.3333 8.00001C11.3333 8.92223 11.0084 9.70823 10.3587 10.358C9.70845 11.0082 8.92223 11.3333 8.00001 11.3333ZM1.33334 8.66667C1.14445 8.66667 0.986227 8.60267 0.858672 8.47467C0.730672 8.34712 0.666672 8.18889 0.666672 8.00001C0.666672 7.81112 0.730672 7.65267 0.858672 7.52467C0.986227 7.39712 1.14445 7.33334 1.33334 7.33334H2.66667C2.85556 7.33334 3.014 7.39712 3.142 7.52467C3.26956 7.65267 3.33334 7.81112 3.33334 8.00001C3.33334 8.18889 3.26956 8.34712 3.142 8.47467C3.014 8.60267 2.85556 8.66667 2.66667 8.66667H1.33334ZM13.3333 8.66667C13.1445 8.66667 12.9862 8.60267 12.8587 8.47467C12.7307 8.34712 12.6667 8.18889 12.6667 8.00001C12.6667 7.81112 12.7307 7.65267 12.8587 7.52467C12.9862 7.39712 13.1445 7.33334 13.3333 7.33334H14.6667C14.8556 7.33334 15.0138 7.39712 15.1413 7.52467C15.2693 7.65267 15.3333 7.81112 15.3333 8.00001C15.3333 8.18889 15.2693 8.34712 15.1413 8.47467C15.0138 8.60267 14.8556 8.66667 14.6667 8.66667H13.3333ZM8.00001 3.33334C7.81112 3.33334 7.65289 3.26934 7.52534 3.14134C7.39734 3.01378 7.33334 2.85556 7.33334 2.66667V1.33334C7.33334 1.14445 7.39734 0.986005 7.52534 0.858005C7.65289 0.730449 7.81112 0.666672 8.00001 0.666672C8.18889 0.666672 8.34734 0.730449 8.47534 0.858005C8.60289 0.986005 8.66667 1.14445 8.66667 1.33334V2.66667C8.66667 2.85556 8.60289 3.01378 8.47534 3.14134C8.34734 3.26934 8.18889 3.33334 8.00001 3.33334ZM8.00001 15.3333C7.81112 15.3333 7.65289 15.2693 7.52534 15.1413C7.39734 15.0138 7.33334 14.8556 7.33334 14.6667V13.3333C7.33334 13.1445 7.39734 12.9862 7.52534 12.8587C7.65289 12.7307 7.81112 12.6667 8.00001 12.6667C8.18889 12.6667 8.34734 12.7307 8.47534 12.8587C8.60289 12.9862 8.66667 13.1445 8.66667 13.3333V14.6667C8.66667 14.8556 8.60289 15.0138 8.47534 15.1413C8.34734 15.2693 8.18889 15.3333 8.00001 15.3333ZM3.76667 4.70001L3.05 4.00001C2.91667 3.87778 2.85267 3.72223 2.85801 3.53334C2.86378 3.34445 2.92778 3.18334 3.05 3.05C3.18334 2.91667 3.34445 2.85001 3.53334 2.85001C3.72223 2.85001 3.87778 2.91667 4.00001 3.05L4.70001 3.76667C4.82223 3.90001 4.88334 4.05556 4.88334 4.23334C4.88334 4.41112 4.82223 4.56667 4.70001 4.70001C4.57778 4.83334 4.42512 4.89712 4.24201 4.89134C4.05845 4.886 3.90001 4.82223 3.76667 4.70001ZM12 12.95L11.3 12.2333C11.1778 12.1 11.1167 11.9418 11.1167 11.7587C11.1167 11.5751 11.1778 11.4222 11.3 11.3C11.4222 11.1667 11.5751 11.1029 11.7587 11.1087C11.9418 11.114 12.1 11.1778 12.2333 11.3L12.95 12C13.0833 12.1222 13.1473 12.2778 13.142 12.4667C13.1362 12.6556 13.0722 12.8167 12.95 12.95C12.8167 13.0833 12.6556 13.15 12.4667 13.15C12.2778 13.15 12.1222 13.0833 12 12.95ZM11.3 4.70001C11.1667 4.57778 11.1029 4.42489 11.1087 4.24134C11.114 4.05823 11.1778 3.90001 11.3 3.76667L12 3.05C12.1222 2.91667 12.2778 2.85267 12.4667 2.85801C12.6556 2.86378 12.8167 2.92778 12.95 3.05C13.0833 3.18334 13.15 3.34445 13.15 3.53334C13.15 3.72223 13.0833 3.87778 12.95 4.00001L12.2333 4.70001C12.1 4.82223 11.9444 4.88334 11.7667 4.88334C11.5889 4.88334 11.4333 4.82223 11.3 4.70001ZM3.05 12.95C2.91667 12.8167 2.85001 12.6556 2.85001 12.4667C2.85001 12.2778 2.91667 12.1222 3.05 12L3.76667 11.3C3.90001 11.1778 4.05845 11.1167 4.24201 11.1167C4.42512 11.1167 4.57778 11.1778 4.70001 11.3C4.83334 11.4222 4.89734 11.5751 4.892 11.7587C4.88623 11.9418 4.82223 12.1 4.70001 12.2333L4.00001 12.95C3.87778 13.0833 3.72223 13.1471 3.53334 13.1413C3.34445 13.136 3.18334 13.0722 3.05 12.95Z" fill="#1C1B1F"/>
</g>
</svg>
